<svg width="72" height="72" viewBox="0 0 72 72" fill="none" xmlns="http://www.w3.org/2000/svg"><path fill-rule="evenodd" clip-rule="evenodd" d="M72 36L36 0L27.3177 8.68231L51.4286 32.7932C52.0314 32.4066 52.7483 32.1823 53.5175 32.1823C55.6569 32.1823 57.3912 33.9166 57.3912 36.056C57.3912 38.1954 55.6569 39.9298 53.5175 39.9298C51.3781 39.9298 49.6438 38.1954 49.6438 36.056C49.6438 35.2868 49.868 34.5699 50.2547 33.9672L26.1438 9.85622L9.47095 26.5291L33.7202 50.7783C34.323 50.3917 35.0399 50.1674 35.8091 50.1674C37.9485 50.1674 39.6828 51.9018 39.6828 54.0411C39.6828 56.1805 37.9485 57.9149 35.8091 57.9149C33.6697 57.9149 31.9354 56.1805 31.9354 54.0411C31.9354 53.2719 32.1596 52.555 32.5463 51.9523L8.29703 27.703L0 36L36 72L72 36ZM27.0695 23.4427C24.9301 23.4427 23.1958 25.177 23.1958 27.3164C23.1958 29.4558 24.9301 31.1902 27.0695 31.1902C27.8388 31.1902 28.5557 30.9659 29.1584 30.5792L52.8833 54.3042L54.0572 53.1303L30.3323 29.4053C30.719 28.8026 30.9432 28.0857 30.9432 27.3164C30.9432 25.177 29.2089 23.4427 27.0695 23.4427ZM25.4003 27.3164C25.4003 26.3945 26.1477 25.6472 27.0695 25.6472C27.9914 25.6472 28.7388 26.3945 28.7388 27.3164C28.7388 28.2383 27.9914 28.9857 27.0695 28.9857C26.1477 28.9857 25.4003 28.2383 25.4003 27.3164ZM53.5175 37.7252C54.4394 37.7252 55.1867 36.9779 55.1867 36.056C55.1867 35.1341 54.4394 34.3868 53.5175 34.3868C52.5956 34.3868 51.8483 35.1341 51.8483 36.056C51.8483 36.9779 52.5956 37.7252 53.5175 37.7252ZM35.8091 55.7103C36.731 55.7103 37.4783 54.963 37.4783 54.0411C37.4783 53.1192 36.731 52.3719 35.8091 52.3719C34.8872 52.3719 34.1399 53.1192 34.1399 54.0411C34.1399 54.963 34.8872 55.7103 35.8091 55.7103Z" fill="white"></path>
</svg>